<svg xmlns="http://www.w3.org/2000/svg" viewBox="0 0 64 64" role="img" aria-label="neurOS favicon">
  <defs>
    <linearGradient id="brainGlow" x1="12%" y1="12%" x2="88%" y2="88%">
      <stop offset="0%" stop-color="#00D4FF" />
      <stop offset="100%" stop-color="#8B5CF6" />
    </linearGradient>
    <filter id="softGlow" x="-50%" y="-50%" width="200%" height="200%">
      <feGaussianBlur stdDeviation="1.8" result="blur" />
      <feMerge>
        <feMergeNode in="blur" />
        <feMergeNode in="SourceGraphic" />
      </feMerge>
    </filter>
  </defs>
  <rect width="64" height="64" rx="20" fill="#1A1B2E" />
  <g filter="url(#softGlow)" fill="none" stroke="url(#brainGlow)" stroke-width="3" stroke-linecap="round" stroke-linejoin="round">
    <path d="M24 17c-5 0-9 4.1-9 9.2 0 2.2.8 4.2 2.1 5.8-1 1.1-1.6 2.5-1.6 4.1 0 3.8 3 6.9 6.8 7.1 1.1 2.3 3.5 3.8 6.2 3.8V17c-1.4 0-2.8 0-4.5 0Z"/>
    <path d="M40 17c5 0 9 4.1 9 9.2 0 2.2-.8 4.2-2.1 5.8 1 1.1 1.6 2.5 1.6 4.1 0 3.8-3 6.9-6.8 7.1-1.1 2.3-3.5 3.8-6.2 3.8V17c1.4 0 2.8 0 4.5 0Z"/>
    <path d="M28.5 23.5c-2.6 0-4.8 2.1-4.8 4.8" />
    <path d="M23.7 31.8c2.5 0 4.5 2 4.5 4.5" />
    <path d="M35.5 23.5c2.6 0 4.8 2.1 4.8 4.8" />
    <path d="M40.3 31.8c-2.5 0-4.5 2-4.5 4.5" />
  </g>
  <g fill="#FFD166">
    <circle cx="32" cy="32" r="2.6" />
    <path d="M32 24.8l1.6 4.1 4.3 1.1-4.3 1.1-1.6 4.1-1.6-4.1-4.3-1.1 4.3-1.1 1.6-4.1Z" opacity="0.95" />
  </g>
</svg>
